<svg width="512" height="512" viewBox="0 0 512 512" fill="none" xmlns="http://www.w3.org/2000/svg">
<path d="M255.7 424.5C348.484 424.5 423.7 349.284 423.7 256.5C423.7 163.716 348.484 88.5 255.7 88.5C162.916 88.5 87.7 163.716 87.7 256.5C87.7 349.284 162.916 424.5 255.7 424.5Z" fill="#2B374C"/>
<path d="M466 256.5C466 214.2 452.8 172.5 429.2 137.1V85.7C429.2 84.3 427.8 82.9 426.4 82.9H375C303.5 33.6 209.1 33.6 137.6 82.9H86.3C85.6 82.9 84.9 82.9 84.2 83.6C83.5 84.3 83.5 85 83.5 85.7V136.4C33.5 208.6 33.5 303.7 83.5 375.9V426.6C83.5 428 84.9 429.4 86.3 429.4H137.7C209.9 478.7 304.3 478 376.5 428.7H427.2C428.6 428.7 430 427.3 430 425.2V374.5C453.5 340.5 466 298.9 466 256.5ZM73.8 256.5C73.8 155.8 155 74.6 255.7 74.6C356.4 74.6 437.6 155.8 437.6 256.5C437.6 357.2 356.4 438.4 255.7 438.4C155 438.4 73.8 357.2 73.8 256.5Z" fill="#F4BF2A"/>
<path d="M134.9 157.9H203.6C202.2 165.5 201.5 173.2 201.5 181.5C204.3 212 224.4 296.7 224.4 296.7L257 164.9L290.4 294C290.4 294 310.5 180.1 310.5 172.5C309.8 166.9 307 161.4 302.2 157.9H375.1C365.4 166.9 358.4 178 354.3 191.2C348.1 216.2 325.8 342.5 325.8 350.2C326.5 358.5 329.3 366.2 334.1 373.1H266.1C267.5 366.9 268.2 360.6 268.2 354.4C268.2 342.6 257.8 287.8 257.8 287.8C257.8 287.8 243.9 344.7 243.9 355.1C243.9 361.3 245.3 367.6 248.1 373.1H179.4C179.4 373.1 192.6 363.4 192.6 354.4C191.2 328.7 155.1 194.7 152.3 184.3C150.1 173.9 143.9 164.2 134.9 157.9Z" fill="#F4BF2A"/>
</svg>
