<svg width="900" height="600" viewBox="0 0 900 600" fill="none" xmlns="http://www.w3.org/2000/svg">
<path d="M900 0H0V600H900V0Z" fill="#0E1B3E"/>
<path d="M299.295 388H294.865V362.406H299.295V388ZM310.527 362.406L317.91 382.023L325.275 362.406H331.023V388H326.594V379.562L327.033 368.277L319.475 388H316.293L308.752 368.295L309.191 379.562V388H304.762V362.406H310.527ZM350.939 382.041H341.025L338.951 388H334.328L343.996 362.406H347.986L357.672 388H353.031L350.939 382.041ZM342.273 378.455H349.691L345.982 367.838L342.273 378.455ZM379.82 384.678C378.895 385.885 377.611 386.799 375.971 387.42C374.33 388.041 372.467 388.352 370.381 388.352C368.236 388.352 366.338 387.865 364.686 386.893C363.033 385.92 361.756 384.531 360.854 382.727C359.963 380.91 359.5 378.795 359.465 376.381V374.377C359.465 370.51 360.391 367.492 362.242 365.324C364.094 363.145 366.678 362.055 369.994 362.055C372.842 362.055 375.104 362.758 376.779 364.164C378.455 365.57 379.463 367.598 379.803 370.246H375.443C374.951 367.164 373.164 365.623 370.082 365.623C368.09 365.623 366.572 366.344 365.529 367.785C364.498 369.215 363.965 371.318 363.93 374.096V376.064C363.93 378.83 364.51 380.98 365.67 382.516C366.842 384.039 368.465 384.801 370.539 384.801C372.812 384.801 374.43 384.285 375.391 383.254V378.244H370.117V374.869H379.82V384.678ZM399.666 376.574H389.154V384.449H401.441V388H384.707V362.406H401.318V365.992H389.154V373.059H399.666V376.574ZM434.33 388H429.883L418.475 369.842V388H414.027V362.406H418.475L429.918 380.635V362.406H434.33V388ZM460.012 375.871C460.012 378.379 459.578 380.582 458.711 382.48C457.844 384.367 456.602 385.82 454.984 386.84C453.379 387.848 451.527 388.352 449.43 388.352C447.355 388.352 445.504 387.848 443.875 386.84C442.258 385.82 441.004 384.373 440.113 382.498C439.234 380.623 438.789 378.461 438.777 376.012V374.57C438.777 372.074 439.217 369.871 440.096 367.961C440.986 366.051 442.234 364.592 443.84 363.584C445.457 362.564 447.309 362.055 449.395 362.055C451.48 362.055 453.326 362.559 454.932 363.566C456.549 364.562 457.797 366.004 458.676 367.891C459.555 369.766 460 371.951 460.012 374.447V375.871ZM455.564 374.535C455.564 371.699 455.025 369.525 453.947 368.014C452.881 366.502 451.363 365.746 449.395 365.746C447.473 365.746 445.967 366.502 444.877 368.014C443.799 369.514 443.248 371.641 443.225 374.395V375.871C443.225 378.684 443.77 380.857 444.859 382.393C445.961 383.928 447.484 384.695 449.43 384.695C451.398 384.695 452.91 383.945 453.965 382.445C455.031 380.945 455.564 378.754 455.564 375.871V374.535ZM481.422 365.992H473.441V388H469.029V365.992H461.119V362.406H481.422V365.992ZM507.455 377.154H497.154V388H492.707V362.406H508.967V365.992H497.154V373.604H507.455V377.154ZM532.926 375.871C532.926 378.379 532.492 380.582 531.625 382.48C530.758 384.367 529.516 385.82 527.898 386.84C526.293 387.848 524.441 388.352 522.344 388.352C520.27 388.352 518.418 387.848 516.789 386.84C515.172 385.82 513.918 384.373 513.027 382.498C512.148 380.623 511.703 378.461 511.691 376.012V374.57C511.691 372.074 512.131 369.871 513.01 367.961C513.9 366.051 515.148 364.592 516.754 363.584C518.371 362.564 520.223 362.055 522.309 362.055C524.395 362.055 526.24 362.559 527.846 363.566C529.463 364.562 530.711 366.004 531.59 367.891C532.469 369.766 532.914 371.951 532.926 374.447V375.871ZM528.479 374.535C528.479 371.699 527.939 369.525 526.861 368.014C525.795 366.502 524.277 365.746 522.309 365.746C520.387 365.746 518.881 366.502 517.791 368.014C516.713 369.514 516.162 371.641 516.139 374.395V375.871C516.139 378.684 516.684 380.857 517.773 382.393C518.875 383.928 520.398 384.695 522.344 384.695C524.312 384.695 525.824 383.945 526.879 382.445C527.945 380.945 528.479 378.754 528.479 375.871V374.535ZM556.076 362.406V379.51C556.076 382.229 555.203 384.385 553.457 385.979C551.723 387.561 549.408 388.352 546.514 388.352C543.584 388.352 541.258 387.572 539.535 386.014C537.812 384.443 536.951 382.27 536.951 379.492V362.406H541.381V379.527C541.381 381.238 541.814 382.545 542.682 383.447C543.549 384.35 544.826 384.801 546.514 384.801C549.936 384.801 551.646 382.996 551.646 379.387V362.406H556.076ZM581.143 388H576.695L565.287 369.842V388H560.84V362.406H565.287L576.73 380.635V362.406H581.143V388ZM586.398 388V362.406H593.957C596.219 362.406 598.223 362.91 599.969 363.918C601.727 364.926 603.086 366.355 604.047 368.207C605.008 370.059 605.488 372.18 605.488 374.57V375.854C605.488 378.279 605.002 380.412 604.029 382.252C603.068 384.092 601.691 385.51 599.898 386.506C598.117 387.502 596.072 388 593.764 388H586.398ZM590.846 365.992V384.449H593.746C596.078 384.449 597.865 383.723 599.107 382.27C600.361 380.805 601 378.707 601.023 375.977V374.553C601.023 371.775 600.42 369.654 599.213 368.189C598.006 366.725 596.254 365.992 593.957 365.992H590.846Z" fill="#F5F6F8"/>
<path d="M517.464 202H382.226C370.09 202 360 211.145 360 222.429V324.571C360 335.855 370.09 345 382.223 345H517.46C529.91 345 540 335.855 540 324.571V222.429C540.003 211.145 530.213 202 517.464 202ZM399.131 222.429C408.467 222.429 416.035 229.288 416.035 237.75C416.035 246.212 408.78 253.071 399.131 253.071C389.481 253.071 382.226 246.212 382.226 237.75C382.226 229.288 390.108 222.429 399.131 222.429ZM517.111 321.89C516.125 323.55 514.224 324.571 512.146 324.571H388.886C386.765 324.571 384.825 323.493 383.864 321.778C382.902 320.065 383.083 318.009 384.333 316.454L408.986 285.811C410.048 284.48 411.739 283.714 413.535 283.714C415.331 283.714 417.027 284.493 418.089 285.813L429.52 300.02L462.379 255.62C463.439 253.933 465.2 253.071 467.066 253.071C468.933 253.071 470.711 253.924 471.754 255.346L516.833 316.631C517.992 318.188 518.098 320.198 517.111 321.89Z" fill="#F5F6F8"/>
<path d="M629.6 600C632.3 576.8 635.1 553.5 640.2 530.4C645.2 507.2 652.6 484.1 665.8 464.8C679 445.5 698.1 429.9 717.6 417.6C737 405.2 756.7 396.1 775.5 384.4C794.3 372.7 812.1 358.4 832.7 348.9C853.3 339.3 876.6 334.4 900 329.6V600H629.6Z" fill="#F5F6F8"/>
<path d="M270.4 0C264.8 23.6 259.1 47.2 248.2 66.5C237.3 85.9 221.2 101 213 123C204.9 145 204.7 174 191.2 191.2C177.7 208.4 150.9 213.8 128.5 222.6C106.1 231.4 88.2 243.6 67.6 252.1C46.9 260.6 23.4 265.5 0 270.4V0H270.4Z" fill="#F5F6F8"/>
</svg>
