<svg width="58" height="58" viewBox="0 0 58 58" fill="none" xmlns="http://www.w3.org/2000/svg">
<path d="M46.393 7.08C55.961 16.648 54.853 33.268 43.918 44.203C32.983 55.138 16.363 56.246 6.795 46.678C-2.773 37.11 -1.665 20.49 9.27 9.555C20.205 -1.38 36.825 -2.488 46.393 7.08Z" fill="#FFD949"/>
<path d="M23.961 48.102C23.41 48.102 22.963 47.657 22.961 47.106C22.959 46.554 23.405 46.104 23.957 46.102C24.582 46.1 25.216 46.067 25.841 46.004C26.393 45.953 26.881 46.35 26.936 46.9C26.991 47.449 26.59 47.939 26.04 47.994C25.351 48.063 24.653 48.1 23.965 48.102H23.961ZM18.106 47.206C18.004 47.206 17.9 47.19 17.798 47.157C17.132 46.94 16.474 46.685 15.844 46.397C15.342 46.168 15.12 45.575 15.35 45.072C15.579 44.569 16.172 44.347 16.675 44.578C17.236 44.834 17.821 45.061 18.415 45.254C18.94 45.425 19.228 45.989 19.057 46.514C18.92 46.936 18.528 47.206 18.106 47.206ZM31.704 46.6C31.303 46.6 30.926 46.358 30.772 45.963C30.571 45.449 30.825 44.868 31.34 44.668C31.922 44.441 32.506 44.183 33.075 43.902C33.571 43.659 34.17 43.862 34.414 44.357C34.658 44.852 34.455 45.451 33.96 45.696C33.339 46.002 32.702 46.283 32.067 46.531C31.947 46.577 31.824 46.6 31.704 46.6ZM11.38 43.115C11.141 43.115 10.903 43.028 10.714 42.851C10.689 42.828 10.644 42.782 10.622 42.757C10.178 42.316 9.71501 41.796 9.29201 41.26C8.95001 40.826 9.02501 40.197 9.45801 39.855C9.89201 39.514 10.52 39.587 10.862 40.021C11.237 40.497 11.647 40.958 12.081 41.391C12.467 41.777 12.483 42.411 12.105 42.804C11.905 43.01 11.643 43.115 11.38 43.115ZM38.469 42.53C38.186 42.53 37.905 42.41 37.708 42.179C37.349 41.759 37.399 41.128 37.819 40.769C38.295 40.363 38.761 39.932 39.204 39.489C39.595 39.099 40.234 39.093 40.625 39.483C41.015 39.873 41.021 40.5 40.631 40.891L40.618 40.903C40.138 41.384 39.633 41.85 39.118 42.29C38.929 42.451 38.698 42.53 38.469 42.53ZM43.579 36.511C43.403 36.511 43.226 36.466 43.065 36.368C42.591 36.084 42.438 35.47 42.723 34.996C43.049 34.452 43.355 33.892 43.631 33.33C43.875 32.836 44.474 32.632 44.97 32.874C45.466 33.118 45.67 33.718 45.426 34.213C45.125 34.825 44.792 35.435 44.437 36.027C44.249 36.339 43.918 36.511 43.579 36.511ZM7.28601 36.423C6.86601 36.423 6.47401 36.156 6.33601 35.735C6.12101 35.077 5.93901 34.398 5.79501 33.715C5.68101 33.174 6.02801 32.644 6.56801 32.531C7.11201 32.419 7.63901 32.763 7.75201 33.303C7.88101 33.915 8.04401 34.524 8.23701 35.111C8.40901 35.636 8.12301 36.2 7.59801 36.373C7.49501 36.407 7.38901 36.423 7.28601 36.423ZM46.43 29.156C46.367 29.156 46.302 29.15 46.238 29.137C45.696 29.032 45.342 28.507 45.448 27.965C45.569 27.344 45.661 26.716 45.722 26.097C45.777 25.548 46.266 25.146 46.816 25.2C47.365 25.255 47.767 25.744 47.713 26.294C47.645 26.975 47.544 27.666 47.411 28.347C47.318 28.825 46.899 29.156 46.43 29.156ZM6.46801 28.592C6.43601 28.592 6.40401 28.591 6.37101 28.587C5.82101 28.534 5.41901 28.045 5.47201 27.495C5.53801 26.814 5.63901 26.123 5.77101 25.441C5.87601 24.899 6.40001 24.545 6.94301 24.649C7.48501 24.754 7.84001 25.279 7.73501 25.821C7.61401 26.442 7.52301 27.07 7.46301 27.689C7.41301 28.206 6.97701 28.592 6.46801 28.592ZM46.419 21.278C45.955 21.278 45.539 20.953 45.441 20.481C45.314 19.87 45.152 19.262 44.96 18.673C44.788 18.148 45.075 17.584 45.6 17.412C46.128 17.241 46.69 17.529 46.861 18.053C47.076 18.711 47.257 19.391 47.399 20.074C47.511 20.615 47.164 21.144 46.623 21.257C46.554 21.271 46.486 21.278 46.419 21.278ZM8.64501 21.012C8.49701 21.012 8.34701 20.979 8.20501 20.91C7.70901 20.667 7.50401 20.068 7.74801 19.572C8.04901 18.957 8.38101 18.346 8.73501 17.757C9.01801 17.282 9.63301 17.13 10.107 17.414C10.58 17.698 10.734 18.311 10.449 18.786C10.125 19.326 9.82001 19.887 9.54401 20.452C9.37001 20.806 9.01501 21.012 8.64501 21.012ZM13.251 14.57C12.997 14.57 12.744 14.476 12.552 14.285C12.162 13.895 12.145 13.279 12.536 12.888L13.243 13.595L12.554 12.869C13.044 12.38 13.541 11.92 14.047 11.488C14.466 11.129 15.097 11.178 15.456 11.597C15.816 12.017 15.766 12.648 15.346 13.007C14.88 13.406 14.422 13.83 13.984 14.268C13.784 14.468 13.517 14.57 13.251 14.57ZM43.13 14.141C42.834 14.141 42.541 14.01 42.343 13.759C41.962 13.274 41.546 12.805 41.107 12.366C40.716 11.975 40.695 11.321 41.085 10.93C41.476 10.54 42.087 10.518 42.478 10.909L41.771 11.616L42.508 10.94C43.016 11.447 43.485 11.975 43.916 12.523C44.257 12.957 44.182 13.585 43.748 13.927C43.565 14.071 43.346 14.141 43.13 14.141ZM19.644 9.972C19.276 9.972 18.922 9.768 18.747 9.416C18.502 8.921 18.704 8.321 19.199 8.076C19.815 7.771 20.452 7.489 21.091 7.238C21.605 7.034 22.185 7.289 22.387 7.803C22.589 8.318 22.336 8.898 21.821 9.099C21.236 9.33 20.652 9.588 20.087 9.868C19.945 9.939 19.793 9.972 19.644 9.972ZM36.9 9.259C36.761 9.259 36.621 9.23 36.487 9.169C35.924 8.913 35.338 8.686 34.745 8.496C34.22 8.326 33.931 7.762 34.101 7.237C34.27 6.712 34.834 6.424 35.36 6.593C36.024 6.807 36.681 7.061 37.313 7.348C37.816 7.576 38.039 8.169 37.811 8.672C37.643 9.042 37.28 9.259 36.9 9.259ZM27.216 7.761C26.709 7.761 26.275 7.377 26.222 6.863C26.166 6.313 26.566 5.822 27.115 5.766C27.804 5.696 28.503 5.658 29.191 5.655H29.196C29.746 5.655 30.194 6.099 30.196 6.65C30.199 7.202 29.754 7.652 29.202 7.655C28.577 7.658 27.943 7.692 27.318 7.756C27.284 7.76 27.25 7.761 27.216 7.761Z" fill="#F4BF1A"/>
<path d="M43.994 44.203C33.881 54.316 18.908 56.016 9.145 48.646C9.744 49.439 10.395 50.202 11.114 50.921C20.681 60.488 37.302 59.38 48.237 48.446C59.171 37.511 60.279 20.89 50.712 11.323C49.993 10.604 49.23 9.953 48.437 9.354C55.807 19.117 54.107 34.09 43.994 44.203Z" fill="#F4BF1A"/>
<path d="M44.672 43.467L48.928 47.723C49.389 47.233 49.834 46.734 50.257 46.224L46.008 41.975C45.585 42.484 45.132 42.977 44.672 43.467Z" fill="#DCA815"/>
<path d="M40.971 46.837L45.229 51.095C45.754 50.688 46.268 50.258 46.773 49.811L42.522 45.56C42.015 46.007 41.497 46.429 40.971 46.837Z" fill="#DCA815"/>
<path d="M47.821 39.545L52.076 43.8C52.462 43.23 52.828 42.652 53.171 42.067L48.925 37.821C48.583 38.406 48.208 38.978 47.821 39.545Z" fill="#DCA815"/>
<path d="M50.365 35.018L54.625 39.277C54.926 38.615 55.198 37.946 55.447 37.272L51.193 33.018C50.945 33.691 50.666 34.357 50.365 35.018Z" fill="#DCA815"/>
<path d="M36.696 49.633L40.952 53.889C41.555 53.563 42.153 53.221 42.741 52.849L38.482 48.591C37.894 48.962 37.299 49.307 36.696 49.633Z" fill="#DCA815"/>
<path d="M31.759 51.767L36.014 56.022C36.707 55.794 37.398 55.544 38.082 55.261L33.828 51.008C33.144 51.29 32.454 51.54 31.759 51.767Z" fill="#DCA815"/>
<path d="M24.631 53.125L28.89 57.384C29.741 57.336 30.596 57.247 31.451 57.117L27.19 52.856C26.335 52.985 25.482 53.078 24.631 53.125Z" fill="#DCA815"/>
<path d="M16.764 52.328L21.034 56.598C22.174 56.904 23.34 57.125 24.524 57.261L20.256 52.992C19.071 52.854 17.905 52.636 16.764 52.328Z" fill="#DCA815"/>
<path d="M52.443 28.611L56.695 32.863C56.857 32.045 56.982 31.226 57.068 30.408L52.811 26.151C52.726 26.971 52.606 27.791 52.443 28.611Z" fill="#DCA815"/>
<path d="M57.178 26.275C57.121 25.196 57.002 24.127 56.808 23.077L52.527 18.796C52.726 19.861 52.879 20.938 52.936 22.033L57.178 26.275Z" fill="#DCA815"/>
</svg>
